<svg xmlns="http://www.w3.org/2000/svg" viewBox="0 0 64 64">
  <path d="M18 10h28v8H18z" fill="#0c7dbb"/>
  <path d="M20 18h24l4 30c0.6 4.6-3 8-7.6 8H23.6c-4.6 0-8.2-3.4-7.6-8l4-30z" fill="#0c7dbb"/>
  <path d="M24 18h16l3.2 24c0.5 3.6-2.3 6.6-6 6.6H26.8c-3.7 0-6.5-3-6-6.6z" fill="#f6f8fb"/>
  <path d="M16 14c0-6.6 5.4-12 12-12h8c6.6 0 12 5.4 12 12h-6c0-3.3-2.7-6-6-6h-8c-3.3 0-6 2.7-6 6z" fill="#1a4f7a" opacity="0.65"/>
  <path d="M42 8l8 8-6 26c-0.6 2.4-3.2 3.8-5.6 3.2l-0.4-0.1z" fill="#f15b2a"/>
  <path d="M27 40h10c0 4.4-2.4 8-5 8s-5-3.6-5-8z" fill="#f15b2a" opacity="0.8"/>
</svg>
