<svg xmlns="http://www.w3.org/2000/svg" viewBox="0 0 64 64">
  <path d="M28 8h8v16l12.4 18.4c4.8 7.2-0.3 17.6-9.3 17.6H20.9c-9 0-14.1-10.4-9.3-17.6L24 24V8z" fill="#0c7dbb"/>
  <path d="M28 12h8v11.2l12 17.8c3.6 5.3-0.2 12.8-6.9 12.8H21c-6.7 0-10.5-7.5-6.9-12.8l12-17.8z" fill="#f6f8fb"/>
  <path d="M22 40h20c0 6.1-4.9 11-11 11s-9-2-9-11z" fill="#f15b2a" opacity="0.9"/>
  <circle cx="25" cy="32" r="3" fill="#0c7dbb" opacity="0.4"/>
  <circle cx="39" cy="34" r="2.5" fill="#0c7dbb" opacity="0.4"/>
</svg>
