<svg xmlns="http://www.w3.org/2000/svg" viewBox="0 0 64 64">
  <rect x="8" y="8" width="48" height="48" rx="14" fill="#0c7dbb"/>
  <g fill="#f6f8fb">
    <circle cx="32" cy="32" r="12" fill="#f6f8fb"/>
    <g fill="#f6f8fb" opacity="0.85">
      <rect x="30" y="12" width="4" height="10" rx="2"/>
      <rect x="30" y="42" width="4" height="10" rx="2"/>
      <rect x="12" y="30" width="10" height="4" rx="2"/>
      <rect x="42" y="30" width="10" height="4" rx="2"/>
      <rect x="16.2" y="17.6" width="4" height="9.8" rx="2" transform="rotate(-45 18.2 22.5)"/>
      <rect x="43.8" y="36.6" width="4" height="9.8" rx="2" transform="rotate(-45 45.8 41.5)"/>
      <rect x="16.2" y="36.6" width="4" height="9.8" rx="2" transform="rotate(45 18.2 41.5)"/>
      <rect x="43.8" y="17.6" width="4" height="9.8" rx="2" transform="rotate(45 45.8 22.5)"/>
    </g>
  </g>
  <circle cx="32" cy="32" r="7" fill="#f15b2a"/>
</svg>
