<svg xmlns="http://www.w3.org/2000/svg" viewBox="0 0 48 48" role="img" aria-label="Paleta RAL">
  <defs>
    <linearGradient id="grad" x1="0%" y1="0%" x2="100%" y2="100%">
      <stop offset="0%" stop-color="#ff9a3c" />
      <stop offset="50%" stop-color="#f94144" />
      <stop offset="100%" stop-color="#577590" />
    </linearGradient>
  </defs>
  <path fill="url(#grad)" d="M21.5 4.5c-9.39 0-17 7.61-17 17s7.61 17 17 17h8.28c6.46 0 11.72-5.26 11.72-11.72 0-3.63-3.01-6.56-6.64-6.28-1.08.08-2.19-.33-3.02-1.12l-.17-.17c-2.73-2.6-6.32-4.06-10.17-4.06h-.33C19 15.15 17 13.14 17 10.62 17 7.46 19.46 4.5 21.5 4.5Z"/>
  <path fill="#ffffff" fill-opacity="0.8" d="M14.5 30.5a3 3 0 1 1 6 0 3 3 0 0 1-6 0Zm8-18a3 3 0 1 1 6 0 3 3 0 0 1-6 0Zm8 16a3 3 0 1 1 6 0 3 3 0 0 1-6 0Z"/>
</svg>
